<svg xmlns="http://www.w3.org/2000/svg" xmlns:xlink="http://www.w3.org/1999/xlink" width="500" zoomAndPan="magnify" viewBox="0 0 375 225" height="300" preserveAspectRatio="xMidYMid meet" version="1.0"><defs><clipPath id="77c8437ade"><path d="M 29.148438 4.535156 L 345.648438 4.535156 L 345.648438 220.535156 L 29.148438 220.535156 Z M 29.148438 4.535156 " clip-rule="nonzero"/></clipPath></defs><g clip-path="url(#77c8437ade)"><path fill="#0063e8" d="M 115.523438 119.695312 C 139.347656 119.695312 158.710938 100.335938 158.710938 76.511719 C 158.710938 52.6875 139.347656 33.324219 115.523438 33.324219 C 91.699219 33.324219 72.335938 52.6875 72.335938 76.511719 C 72.335938 100.335938 91.699219 119.695312 115.523438 119.695312 Z M 288.265625 33.324219 L 173.105469 33.324219 L 173.105469 134.09375 L 57.941406 134.09375 L 57.941406 4.535156 L 29.152344 4.535156 L 29.152344 220.464844 L 57.941406 220.464844 L 57.941406 177.277344 L 317.058594 177.277344 L 317.058594 220.464844 L 345.847656 220.464844 L 345.847656 90.90625 C 345.847656 59.09375 320.082031 33.324219 288.265625 33.324219 Z M 288.265625 33.324219 " fill-opacity="1" fill-rule="nonzero"/></g></svg>