<svg xmlns="http://www.w3.org/2000/svg" xmlns:xlink="http://www.w3.org/1999/xlink" width="100" zoomAndPan="magnify" viewBox="0 0 75 30.000001" height="40" preserveAspectRatio="xMidYMid meet" version="1.0"><defs><g/><clipPath id="435f9a0df4"><path d="M 11.09375 6.128906 L 35.769531 6.128906 L 35.769531 22.824219 L 11.09375 22.824219 Z M 11.09375 6.128906 " clip-rule="nonzero"/></clipPath></defs><g clip-path="url(#435f9a0df4)"><path fill="#046fff" d="M 17.796875 15.070312 C 19.648438 15.070312 21.152344 13.566406 21.152344 11.71875 C 21.152344 9.867188 19.648438 8.367188 17.796875 8.367188 C 15.949219 8.367188 14.445312 9.867188 14.445312 11.71875 C 14.445312 13.566406 15.949219 15.070312 17.796875 15.070312 Z M 31.207031 8.367188 L 22.269531 8.367188 L 22.269531 16.1875 L 13.328125 16.1875 L 13.328125 6.128906 L 11.09375 6.128906 L 11.09375 22.890625 L 13.328125 22.890625 L 13.328125 19.539062 L 33.441406 19.539062 L 33.441406 22.890625 L 35.675781 22.890625 L 35.675781 12.835938 C 35.675781 10.367188 33.675781 8.367188 31.207031 8.367188 Z M 31.207031 8.367188 " fill-opacity="1" fill-rule="nonzero"/></g><g fill="#38b6ff" fill-opacity="1"><g transform="translate(37.576989, 16.95893)"><g><path d="M 3.359375 0.09375 C 2.785156 0.09375 2.28125 0 1.84375 -0.1875 C 1.40625 -0.382812 1.054688 -0.648438 0.796875 -0.984375 C 0.546875 -1.328125 0.40625 -1.707031 0.375 -2.125 L 2.328125 -2.125 C 2.359375 -1.894531 2.460938 -1.710938 2.640625 -1.578125 C 2.828125 -1.441406 3.054688 -1.375 3.328125 -1.375 C 3.578125 -1.375 3.769531 -1.421875 3.90625 -1.515625 C 4.039062 -1.609375 4.109375 -1.734375 4.109375 -1.890625 C 4.109375 -2.078125 4.007812 -2.210938 3.8125 -2.296875 C 3.625 -2.390625 3.3125 -2.488281 2.875 -2.59375 C 2.414062 -2.707031 2.03125 -2.820312 1.71875 -2.9375 C 1.40625 -3.0625 1.132812 -3.253906 0.90625 -3.515625 C 0.6875 -3.773438 0.578125 -4.125 0.578125 -4.5625 C 0.578125 -4.9375 0.679688 -5.273438 0.890625 -5.578125 C 1.097656 -5.878906 1.398438 -6.117188 1.796875 -6.296875 C 2.191406 -6.484375 2.664062 -6.578125 3.21875 -6.578125 C 4.03125 -6.578125 4.671875 -6.375 5.140625 -5.96875 C 5.609375 -5.5625 5.875 -5.023438 5.9375 -4.359375 L 4.109375 -4.359375 C 4.078125 -4.585938 3.976562 -4.765625 3.8125 -4.890625 C 3.644531 -5.023438 3.425781 -5.09375 3.15625 -5.09375 C 2.925781 -5.09375 2.75 -5.046875 2.625 -4.953125 C 2.5 -4.867188 2.4375 -4.75 2.4375 -4.59375 C 2.4375 -4.40625 2.535156 -4.265625 2.734375 -4.171875 C 2.929688 -4.085938 3.238281 -4 3.65625 -3.90625 C 4.132812 -3.78125 4.523438 -3.65625 4.828125 -3.53125 C 5.128906 -3.414062 5.394531 -3.222656 5.625 -2.953125 C 5.851562 -2.679688 5.972656 -2.320312 5.984375 -1.875 C 5.984375 -1.5 5.875 -1.160156 5.65625 -0.859375 C 5.445312 -0.566406 5.140625 -0.332031 4.734375 -0.15625 C 4.335938 0.0078125 3.878906 0.09375 3.359375 0.09375 Z M 3.359375 0.09375 "/></g></g></g><g fill="#38b6ff" fill-opacity="1"><g transform="translate(44.054223, 16.95893)"><g><path d="M 4.328125 -1.6875 L 4.328125 0 L 3.3125 0 C 2.59375 0 2.03125 -0.175781 1.625 -0.53125 C 1.226562 -0.882812 1.03125 -1.457031 1.03125 -2.25 L 1.03125 -4.828125 L 0.25 -4.828125 L 0.25 -6.484375 L 1.03125 -6.484375 L 1.03125 -8.0625 L 3.015625 -8.0625 L 3.015625 -6.484375 L 4.3125 -6.484375 L 4.3125 -4.828125 L 3.015625 -4.828125 L 3.015625 -2.234375 C 3.015625 -2.035156 3.0625 -1.894531 3.15625 -1.8125 C 3.25 -1.726562 3.40625 -1.6875 3.625 -1.6875 Z M 4.328125 -1.6875 "/></g></g></g><g fill="#38b6ff" fill-opacity="1"><g transform="translate(48.76705, 16.95893)"><g><path d="M 0.328125 -3.25 C 0.328125 -3.914062 0.453125 -4.5 0.703125 -5 C 0.953125 -5.507812 1.289062 -5.898438 1.71875 -6.171875 C 2.15625 -6.441406 2.644531 -6.578125 3.1875 -6.578125 C 3.632812 -6.578125 4.03125 -6.484375 4.375 -6.296875 C 4.726562 -6.109375 4.992188 -5.863281 5.171875 -5.5625 L 5.171875 -6.484375 L 7.15625 -6.484375 L 7.15625 0 L 5.171875 0 L 5.171875 -0.921875 C 4.984375 -0.617188 4.71875 -0.375 4.375 -0.1875 C 4.03125 0 3.628906 0.09375 3.171875 0.09375 C 2.640625 0.09375 2.15625 -0.0390625 1.71875 -0.3125 C 1.289062 -0.59375 0.953125 -0.984375 0.703125 -1.484375 C 0.453125 -1.992188 0.328125 -2.582031 0.328125 -3.25 Z M 5.171875 -3.234375 C 5.171875 -3.734375 5.035156 -4.125 4.765625 -4.40625 C 4.492188 -4.695312 4.160156 -4.84375 3.765625 -4.84375 C 3.367188 -4.84375 3.03125 -4.703125 2.75 -4.421875 C 2.476562 -4.140625 2.34375 -3.75 2.34375 -3.25 C 2.34375 -2.75 2.476562 -2.351562 2.75 -2.0625 C 3.03125 -1.78125 3.367188 -1.640625 3.765625 -1.640625 C 4.160156 -1.640625 4.492188 -1.78125 4.765625 -2.0625 C 5.035156 -2.351562 5.171875 -2.742188 5.171875 -3.234375 Z M 5.171875 -3.234375 "/></g></g></g><g fill="#38b6ff" fill-opacity="1"><g transform="translate(56.648844, 16.95893)"><g><path d="M 7.34375 -6.484375 L 3.28125 3.078125 L 1.140625 3.078125 L 2.625 -0.21875 L -0.015625 -6.484375 L 2.203125 -6.484375 L 3.703125 -2.421875 L 5.1875 -6.484375 Z M 7.34375 -6.484375 "/></g></g></g><g fill="#046fff" fill-opacity="1"><g transform="translate(37.847042, 20.431007)"><g><path d="M 1.1875 -1.640625 C 1.375 -1.640625 1.519531 -1.578125 1.625 -1.453125 C 1.738281 -1.335938 1.796875 -1.171875 1.796875 -0.953125 L 1.796875 0 L 1.3125 0 L 1.3125 -0.890625 C 1.3125 -0.992188 1.28125 -1.078125 1.21875 -1.140625 C 1.164062 -1.203125 1.09375 -1.234375 1 -1.234375 C 0.894531 -1.234375 0.816406 -1.203125 0.765625 -1.140625 C 0.710938 -1.078125 0.6875 -0.992188 0.6875 -0.890625 L 0.6875 0 L 0.1875 0 L 0.1875 -2.15625 L 0.6875 -2.15625 L 0.6875 -1.40625 C 0.726562 -1.476562 0.789062 -1.535156 0.875 -1.578125 C 0.96875 -1.617188 1.070312 -1.640625 1.1875 -1.640625 Z M 1.1875 -1.640625 "/></g></g></g><g fill="#046fff" fill-opacity="1"><g transform="translate(40.193421, 20.431007)"><g><path d="M 0.921875 0.015625 C 0.765625 0.015625 0.617188 -0.015625 0.484375 -0.078125 C 0.359375 -0.148438 0.257812 -0.25 0.1875 -0.375 C 0.113281 -0.5 0.078125 -0.644531 0.078125 -0.8125 C 0.078125 -0.976562 0.113281 -1.125 0.1875 -1.25 C 0.257812 -1.382812 0.359375 -1.484375 0.484375 -1.546875 C 0.617188 -1.617188 0.765625 -1.65625 0.921875 -1.65625 C 1.085938 -1.65625 1.234375 -1.617188 1.359375 -1.546875 C 1.484375 -1.484375 1.582031 -1.382812 1.65625 -1.25 C 1.738281 -1.125 1.78125 -0.976562 1.78125 -0.8125 C 1.78125 -0.644531 1.738281 -0.5 1.65625 -0.375 C 1.582031 -0.25 1.476562 -0.148438 1.34375 -0.078125 C 1.21875 -0.015625 1.078125 0.015625 0.921875 0.015625 Z M 0.921875 -0.40625 C 1.015625 -0.40625 1.09375 -0.441406 1.15625 -0.515625 C 1.226562 -0.585938 1.265625 -0.6875 1.265625 -0.8125 C 1.265625 -0.945312 1.234375 -1.046875 1.171875 -1.109375 C 1.109375 -1.179688 1.023438 -1.21875 0.921875 -1.21875 C 0.828125 -1.21875 0.75 -1.179688 0.6875 -1.109375 C 0.625 -1.046875 0.59375 -0.945312 0.59375 -0.8125 C 0.59375 -0.6875 0.625 -0.585938 0.6875 -0.515625 C 0.75 -0.441406 0.828125 -0.40625 0.921875 -0.40625 Z M 0.921875 -0.40625 "/></g></g></g><g fill="#046fff" fill-opacity="1"><g transform="translate(42.431817, 20.431007)"><g><path d="M 2.265625 -1.640625 C 2.460938 -1.640625 2.617188 -1.578125 2.734375 -1.453125 C 2.859375 -1.335938 2.921875 -1.171875 2.921875 -0.953125 L 2.921875 0 L 2.421875 0 L 2.421875 -0.890625 C 2.421875 -0.992188 2.394531 -1.070312 2.34375 -1.125 C 2.289062 -1.1875 2.210938 -1.21875 2.109375 -1.21875 C 2.015625 -1.21875 1.9375 -1.1875 1.875 -1.125 C 1.820312 -1.070312 1.796875 -0.992188 1.796875 -0.890625 L 1.796875 0 L 1.3125 0 L 1.3125 -0.890625 C 1.3125 -0.992188 1.28125 -1.070312 1.21875 -1.125 C 1.164062 -1.1875 1.09375 -1.21875 1 -1.21875 C 0.894531 -1.21875 0.816406 -1.1875 0.765625 -1.125 C 0.710938 -1.070312 0.6875 -0.992188 0.6875 -0.890625 L 0.6875 0 L 0.1875 0 L 0.1875 -1.625 L 0.6875 -1.625 L 0.6875 -1.421875 C 0.726562 -1.492188 0.789062 -1.546875 0.875 -1.578125 C 0.957031 -1.617188 1.050781 -1.640625 1.15625 -1.640625 C 1.28125 -1.640625 1.390625 -1.613281 1.484375 -1.5625 C 1.578125 -1.507812 1.65625 -1.4375 1.71875 -1.34375 C 1.769531 -1.4375 1.84375 -1.507812 1.9375 -1.5625 C 2.039062 -1.613281 2.148438 -1.640625 2.265625 -1.640625 Z M 2.265625 -1.640625 "/></g></g></g><g fill="#046fff" fill-opacity="1"><g transform="translate(45.901771, 20.431007)"><g><path d="M 1.71875 -0.84375 C 1.71875 -0.789062 1.710938 -0.742188 1.703125 -0.703125 L 0.578125 -0.703125 C 0.585938 -0.597656 0.617188 -0.515625 0.671875 -0.453125 C 0.734375 -0.398438 0.804688 -0.375 0.890625 -0.375 C 1.015625 -0.375 1.097656 -0.429688 1.140625 -0.546875 L 1.6875 -0.546875 C 1.65625 -0.429688 1.601562 -0.332031 1.53125 -0.25 C 1.457031 -0.164062 1.367188 -0.0976562 1.265625 -0.046875 C 1.160156 -0.00390625 1.039062 0.015625 0.90625 0.015625 C 0.75 0.015625 0.609375 -0.015625 0.484375 -0.078125 C 0.359375 -0.148438 0.257812 -0.25 0.1875 -0.375 C 0.113281 -0.5 0.078125 -0.644531 0.078125 -0.8125 C 0.078125 -0.976562 0.113281 -1.125 0.1875 -1.25 C 0.257812 -1.382812 0.351562 -1.484375 0.46875 -1.546875 C 0.59375 -1.617188 0.738281 -1.65625 0.90625 -1.65625 C 1.0625 -1.65625 1.203125 -1.617188 1.328125 -1.546875 C 1.453125 -1.484375 1.546875 -1.390625 1.609375 -1.265625 C 1.679688 -1.148438 1.71875 -1.007812 1.71875 -0.84375 Z M 1.203125 -0.96875 C 1.203125 -1.050781 1.171875 -1.117188 1.109375 -1.171875 C 1.054688 -1.222656 0.988281 -1.25 0.90625 -1.25 C 0.820312 -1.25 0.75 -1.222656 0.6875 -1.171875 C 0.632812 -1.128906 0.597656 -1.0625 0.578125 -0.96875 Z M 1.203125 -0.96875 "/></g></g></g><g fill="#046fff" fill-opacity="1"><g transform="translate(48.078882, 20.431007)"><g/></g></g><g fill="#046fff" fill-opacity="1"><g transform="translate(49.076969, 20.431007)"><g><path d="M 0.84375 0.015625 C 0.695312 0.015625 0.566406 -0.00390625 0.453125 -0.046875 C 0.347656 -0.0976562 0.265625 -0.164062 0.203125 -0.25 C 0.140625 -0.332031 0.101562 -0.425781 0.09375 -0.53125 L 0.59375 -0.53125 C 0.59375 -0.476562 0.613281 -0.429688 0.65625 -0.390625 C 0.707031 -0.359375 0.769531 -0.34375 0.84375 -0.34375 C 0.90625 -0.34375 0.953125 -0.351562 0.984375 -0.375 C 1.015625 -0.40625 1.03125 -0.4375 1.03125 -0.46875 C 1.03125 -0.519531 1.003906 -0.554688 0.953125 -0.578125 C 0.910156 -0.597656 0.832031 -0.625 0.71875 -0.65625 C 0.601562 -0.6875 0.503906 -0.710938 0.421875 -0.734375 C 0.347656 -0.765625 0.28125 -0.8125 0.21875 -0.875 C 0.164062 -0.945312 0.140625 -1.035156 0.140625 -1.140625 C 0.140625 -1.234375 0.164062 -1.316406 0.21875 -1.390625 C 0.269531 -1.472656 0.347656 -1.535156 0.453125 -1.578125 C 0.554688 -1.628906 0.675781 -1.65625 0.8125 -1.65625 C 1.007812 -1.65625 1.164062 -1.601562 1.28125 -1.5 C 1.40625 -1.394531 1.476562 -1.257812 1.5 -1.09375 L 1.03125 -1.09375 C 1.019531 -1.15625 0.992188 -1.203125 0.953125 -1.234375 C 0.910156 -1.265625 0.859375 -1.28125 0.796875 -1.28125 C 0.734375 -1.28125 0.6875 -1.269531 0.65625 -1.25 C 0.625 -1.226562 0.609375 -1.195312 0.609375 -1.15625 C 0.609375 -1.113281 0.632812 -1.078125 0.6875 -1.046875 C 0.738281 -1.023438 0.816406 -1.003906 0.921875 -0.984375 C 1.035156 -0.953125 1.128906 -0.921875 1.203125 -0.890625 C 1.285156 -0.859375 1.351562 -0.804688 1.40625 -0.734375 C 1.46875 -0.671875 1.5 -0.582031 1.5 -0.46875 C 1.5 -0.375 1.472656 -0.289062 1.421875 -0.21875 C 1.367188 -0.144531 1.289062 -0.0859375 1.1875 -0.046875 C 1.09375 -0.00390625 0.976562 0.015625 0.84375 0.015625 Z M 0.84375 0.015625 "/></g></g></g><g fill="#046fff" fill-opacity="1"><g transform="translate(51.084816, 20.431007)"><g><path d="M 1.09375 -0.421875 L 1.09375 0 L 0.828125 0 C 0.648438 0 0.507812 -0.0390625 0.40625 -0.125 C 0.3125 -0.21875 0.265625 -0.363281 0.265625 -0.5625 L 0.265625 -1.21875 L 0.0625 -1.21875 L 0.0625 -1.625 L 0.265625 -1.625 L 0.265625 -2.03125 L 0.765625 -2.03125 L 0.765625 -1.625 L 1.09375 -1.625 L 1.09375 -1.21875 L 0.765625 -1.21875 L 0.765625 -0.5625 C 0.765625 -0.507812 0.773438 -0.472656 0.796875 -0.453125 C 0.816406 -0.429688 0.851562 -0.421875 0.90625 -0.421875 Z M 1.09375 -0.421875 "/></g></g></g><g fill="#046fff" fill-opacity="1"><g transform="translate(52.649068, 20.431007)"><g><path d="M 0.078125 -0.8125 C 0.078125 -0.976562 0.109375 -1.125 0.171875 -1.25 C 0.234375 -1.382812 0.316406 -1.484375 0.421875 -1.546875 C 0.535156 -1.617188 0.660156 -1.65625 0.796875 -1.65625 C 0.910156 -1.65625 1.007812 -1.628906 1.09375 -1.578125 C 1.1875 -1.535156 1.253906 -1.476562 1.296875 -1.40625 L 1.296875 -1.625 L 1.796875 -1.625 L 1.796875 0 L 1.296875 0 L 1.296875 -0.234375 C 1.253906 -0.148438 1.1875 -0.0859375 1.09375 -0.046875 C 1.007812 -0.00390625 0.910156 0.015625 0.796875 0.015625 C 0.660156 0.015625 0.535156 -0.015625 0.421875 -0.078125 C 0.316406 -0.148438 0.234375 -0.25 0.171875 -0.375 C 0.109375 -0.5 0.078125 -0.644531 0.078125 -0.8125 Z M 1.296875 -0.8125 C 1.296875 -0.9375 1.257812 -1.035156 1.1875 -1.109375 C 1.125 -1.179688 1.046875 -1.21875 0.953125 -1.21875 C 0.847656 -1.21875 0.757812 -1.179688 0.6875 -1.109375 C 0.625 -1.035156 0.59375 -0.9375 0.59375 -0.8125 C 0.59375 -0.6875 0.625 -0.585938 0.6875 -0.515625 C 0.757812 -0.441406 0.847656 -0.40625 0.953125 -0.40625 C 1.046875 -0.40625 1.125 -0.441406 1.1875 -0.515625 C 1.257812 -0.585938 1.296875 -0.6875 1.296875 -0.8125 Z M 1.296875 -0.8125 "/></g></g></g><g fill="#046fff" fill-opacity="1"><g transform="translate(55.010039, 20.431007)"><g><path d="M 1.84375 -1.625 L 0.828125 0.78125 L 0.28125 0.78125 L 0.65625 -0.0625 L 0 -1.625 L 0.5625 -1.625 L 0.9375 -0.609375 L 1.3125 -1.625 Z M 1.84375 -1.625 "/></g></g></g></svg>